<?xml version="1.0" encoding="utf-8"?>
<!-- Generator: Adobe Illustrator 16.0.4, SVG Export Plug-In . SVG Version: 6.00 Build 0)  -->
<!DOCTYPE svg PUBLIC "-//W3C//DTD SVG 1.1//EN" "http://www.w3.org/Graphics/SVG/1.1/DTD/svg11.dtd">
<svg version="1.1" id="Layer_1" xmlns="http://www.w3.org/2000/svg" xmlns:xlink="http://www.w3.org/1999/xlink" x="0px" y="0px"
	 width="63.989px" height="60.937px" viewBox="398.176 13.976 63.989 60.937" enable-background="new 398.176 13.976 63.989 60.937"
	 xml:space="preserve">
<g>
	<g>
		<polyline fill="none" stroke="#5DB541" stroke-width="2" stroke-miterlimit="10" points="357.263,68.515 357.263,71.515 
			354.263,71.515 		"/>
		
			<line fill="none" stroke="#5DB541" stroke-width="2" stroke-miterlimit="10" stroke-dasharray="5.5186,5.5186" x1="348.744" y1="71.515" x2="307.355" y2="71.515"/>
		<polyline fill="none" stroke="#5DB541" stroke-width="2" stroke-miterlimit="10" points="304.596,71.515 301.596,71.515 
			301.596,68.515 		"/>
		
			<line fill="none" stroke="#5DB541" stroke-width="2" stroke-miterlimit="10" stroke-dasharray="5.4257,5.4257" x1="301.596" y1="63.089" x2="301.596" y2="22.397"/>
		<polyline fill="none" stroke="#5DB541" stroke-width="2" stroke-miterlimit="10" points="301.596,19.684 301.596,16.684 
			304.596,16.684 		"/>
		
			<line fill="none" stroke="#5DB541" stroke-width="2" stroke-miterlimit="10" stroke-dasharray="5.5186,5.5186" x1="310.114" y1="16.684" x2="351.504" y2="16.684"/>
		<polyline fill="none" stroke="#5DB541" stroke-width="2" stroke-miterlimit="10" points="354.263,16.684 357.263,16.684 
			357.263,19.684 		"/>
		
			<line fill="none" stroke="#5DB541" stroke-width="2" stroke-miterlimit="10" stroke-dasharray="5.4257,5.4257" x1="357.263" y1="25.11" x2="357.263" y2="65.802"/>
	</g>
</g>
<path fill="#010101" d="M85.334,30.322c0-5.544-2.131-11.105-6.355-15.335c-4.235-4.228-9.791-6.356-15.334-6.354
	c-5.545-0.003-9.11,2.114-13.347,6.348c-4.236-4.233-9.801-6.354-15.347-6.351c-5.547-0.003-10.105,1.123-14.335,5.356
	c-4.23,4.229-6.357,9.791-6.357,15.335c-0.003,5.55,2.118,11.116,6.354,15.353l25.135,24.133l2.715-2.621l-25.18-24.183
	c-3.507-3.504-5.248-8.085-5.248-12.682c0-4.589,1.747-9.164,5.251-12.667c3.501-3.504,7.076-4.249,11.665-4.249
	c4.598,0,9.175,1.745,12.685,5.249l0.231,0.229l2.766,2.577c0.576-0.818,1.563-2.034,2.293-2.769l0.034-0.037
	c3.506-3.504,6.09-5.246,10.685-5.249c4.589,0,9.16,1.751,12.662,5.255c3.506,3.498,5.254,8.072,5.254,12.664
	c-0.012,4.595-1.748,9.175-5.256,12.679L47.966,61.798l2.667,2.667l28.346-18.791C83.215,41.439,85.334,35.871,85.334,30.322z"/>
<path fill="#5DB541" d="M149.666,19.571c-4.421-4.782-15.824-8.979-23.1,2.896c-4.513-7.251-15.096-10.938-23.098-2.938
	c-5.277,5.277-4.794,9.738-4.597,14.055c0.044,0.972,1.118,5.375,2.124,7.417c0.663,1.192,1.304,2.224,1.562,2.593
	c5.959,8.553,13.539,10.939,13.772,10.283c0.941-2.854,1.09-5.387,1.097-7.252l0.241-0.247c0.023,0.025,0.04,0.057,0.04,0.102
	c0,1.325-0.253,6.019,3.294,7.275c1.397,0.496,4.3,0.938,7.248,1.284c2.668,0.307,4.602,1.356,4.602,8.197
	c0,4.161-0.875,4.732-5.443,4.732c-3.706,0-5.116,0.096-5.116-2.848c0-2.379,2.351-2.13,4.094-2.13c0.781,0,0.215-0.579,0.215-2.046
	c0-1.459,0.914-2.305,0.048-2.325c-6.027-0.166-9.573-0.008-9.573,7.532c0,6.849,2.617,8.118,11.175,8.118
	c6.711,0,9.076-0.221,11.846-8.815c0.363-1.126,1.736-5.113,1.736-8.966s8.933-15.514,9.58-16.82
	C154.9,32.638,154.041,23.964,149.666,19.571z M129.816,41.948c-0.829-0.03-1.625,0.025-2.371,0.142
	c0.209-1.69,0.908-3.763,3.381-3.675c2.733,0.095,3.116,2.679,3.125,4.428C132.798,42.33,131.37,42.004,129.816,41.948z"/>
<path d="M256.285,118.44c-6.265-4.38-19.618-5.653-23.215,8.066c-2.07-9.791-15.094-14.5-23.281-7.482
	c-5.39,5.391-5.204,9.428-5.003,13.837c0.045,0.993,0.548,4.34,0.98,5.271c0.918,1.977,2.36,4.345,2.783,4.952
	c6.086,8.734,18.229,11.336,21.239,11.688c2.725,0.313,4.699,1.386,4.699,8.372c0,4.25-0.893,4.833-5.559,4.833
	c-3.785,0-5.226,0.098-5.226-2.908c0-2.43,2.401-2.175,4.182-2.175c0.798,0,0.219-0.592,0.219-2.09c0-1.49,0.934-2.354,0.049-2.375
	c-6.155-0.169-9.776-0.008-9.776,7.693c0,6.994,2.673,8.29,11.412,8.29c6.854,0,9.27-0.225,12.098-9.003
	c0.371-1.149,1.091-3.867,1.773-8.156c0.124-0.752,0.357-1.488,0.681-2.22c0,0,9.697-10.494,14.104-18.958
	C262.146,128.965,262.207,123.557,256.285,118.44z"/>
<path d="M181.161,110.215c-8.17-8.172-22.161-6.129-29.591,6c-4.82-10.911-21.417-14.172-29.59-6
	c-6.604,6.604-6.876,13.955-6.499,19.318c0.117,1.66,0.871,6.076,1.196,6.912c5.424,13.924,24.149,20.66,24.438,19.85
	c0.962-2.914,1.113-5.501,1.12-7.406l0.247-0.252c0.023,0.025,0.041,0.058,0.041,0.104c0,1.354-0.259,6.146,3.363,7.43
	c1.428,0.507,4.392,0.959,7.402,1.312c2.725,0.313,4.699,1.386,4.699,8.372c0,4.25-0.893,4.833-5.559,4.833
	c-3.785,0-5.226,0.098-5.226-2.908c0-2.43,2.401-2.175,4.182-2.175c0.798,0,0.219-0.592,0.219-2.09c0-1.49,0.934-2.354,0.049-2.375
	c-6.155-0.169-9.776-0.008-9.776,7.693c0,6.994,2.673,8.29,11.412,8.29c6.854,0,9.27-0.225,12.098-9.003
	c0.371-1.149,1.091-3.867,1.773-8.156c0.318-2.006,0.557-6.715,5.34-11.498s8.661-8.661,8.661-8.661
	C189.332,131.634,189.332,118.387,181.161,110.215z M154.889,144.111c-0.847-0.03-1.659,0.025-2.421,0.145
	c0.213-1.726,0.928-3.843,3.452-3.753c2.792,0.097,3.183,2.736,3.191,4.522C157.934,144.501,156.476,144.168,154.889,144.111z"/>
<path fill="#010101" d="M-6.965,80.471c-2.21,0.585-4.12,0.409-5.186,0.215c-0.573-0.104-5.242-1.221-5.242-5.79
	c0-4.752,3.329-5.15,6.448-5.15v3c-1.009,0-1.603,0.376-1.949,0.716c-0.267,0.261-0.499,0.784-0.499,1.435
	c0,0.837,0.457,1.45,1.018,1.71c3.333,0.941,5.41-0.135,5.41-0.135c1.351-0.694,1.512-2.119,1.512-2.119s0.372-2.747,0-4.777h4
	c0.853,5.569-0.53,7.18-0.625,7.416C-2.612,78.326-4.188,79.682-6.965,80.471z"/>
<g>
	<path fill="#010101" d="M45.296,66.324c0.244,3.622-0.243,7.298-0.268,7.485c-0.146,1.306-1.778,6.826-7.849,6.826
		c-1.413,0-3.105-0.276-5.033-0.82l-0.296-0.109c-1.927-0.892-3.124-2.852-3.124-5.114c0-1.672,0.144-2.724,1.124-3.682
		c0.861-0.843,2.374-1.31,3.6-1.606v-2.607c-5.602,0.263-8.441,1.865-8.441,7.896c0,7.567,8.128,9.142,8.474,9.204l0.099,0.019
		c0.899,0.164,1.676,0.306,2.624,0.306c3.92,0,6.604-1.071,7.864-1.849c3.275-2.021,5.228-5.918,5.228-11.23
		c0.02-1.425-0.073-2.594-0.278-4.311l-1.16-1.126L45.296,66.324z"/>
</g>
<path fill="#010101" d="M43.316,46.676c-0.604-0.021-1.185,0.018-1.727,0.104c0.152-1.231,0.66-2.741,2.461-2.679
	c1.992,0.069,2.271,1.953,2.278,3.229C45.489,46.955,44.449,46.717,43.316,46.676z"/>
<path d="M99.815-76.496c0,0,0,0,0.004,0h5.41c0.312,0,0.56-0.253,0.561-0.56c0-0.004-0.064-4.642-0.064-5.932v-0.014
	c0-1.061,0.223-1.984,0.607-2.758l0.188-0.348c-0.022,0.004-0.044,0.012-0.063,0.033L95.942-75.645
	c-0.021,0.018-0.035,0.041-0.039,0.062c0.217-0.109,0.514-0.256,0.557-0.273C97.376-76.27,98.487-76.496,99.815-76.496z
	 M141.927-77.632c-0.432-2.301-1.799-3.436-3.037-3.881c-1.334-0.482-4.039-0.982-7.439-1.383c-2.734-0.323-5.951-0.297-7.893-0.236
	c-0.232-1.597-1.354-3.055-2.605-3.561c-3.338-1.342-8.498-1.018-9.82-0.648c-1.053,0.295-2.218,0.898-2.867,1.826
	c-0.434,0.62-0.717,1.416-0.717,2.527c0,0.626,0.016,2.107,0.034,3.423c0.015,1.32,0.032,2.5,0.032,2.509
	c0,1.173-0.952,2.129-2.132,2.131h-5.414c-1.155,0-2.036,0.195-2.712,0.5c-0.673,0.309-1.15,0.721-1.514,1.209
	c-0.723,0.971-0.85,2.167-0.847,3.391c0,0,0.012,0.998,0.251,2.931c0.199,1.498,1.824,11.944,3.363,15.123
	c0.597,1.236,0.996,1.752,2.168,2.295c2.616,1.121,8.588,2.366,11.389,2.724c2.793,0.356,4.547,1.107,5.594-1.083
	c0.002-0.007,0.209-0.545,0.49-1.337c0.908-2.75,1.033-5.189,1.033-6.954c0-0.181,0.264-0.188,0.264,0
	c0,1.245-0.238,5.657,3.096,6.84c1.314,0.466,4.043,0.882,6.814,1.207c2.508,0.288,4.326,1.275,4.326,7.706
	c0,3.913-0.822,4.45-5.117,4.45c-3.484,0-4.811,0.089-4.811-2.678c0-2.236,2.211-2.002,3.85-2.002c0.734,0,0.201-0.545,0.201-1.924
	c0-1.372,0.859-2.166,0.045-2.187c-5.666-0.156-9-0.007-9,7.083c0,6.437,2.461,7.631,10.506,7.631c6.309,0,8.533-0.208,11.137-8.288
	c0.514-1.595,1.762-6.465,2.516-14.639C143.587-58.094,142.661-73.694,141.927-77.632z M130.931-60.389
	c-0.779-0.027-1.527,0.023-2.229,0.134c0.195-1.588,0.854-3.537,3.178-3.455c2.57,0.089,2.93,2.519,2.938,4.164
	C133.733-60.029,132.392-60.336,130.931-60.389z"/>
<path fill="#5DB541" d="M329.429,27.808c-5.018-5.019-13.154-5.019-18.174,0s-5.019,13.155,0,18.175l18.174,18.173l18.175-18.173
	c5.019-5.02,5.019-13.155,0-18.175C342.585,22.789,334.446,22.789,329.429,27.808z"/>
<g>
	<g>
		<polyline fill="none" stroke="#5DB541" stroke-width="2" stroke-miterlimit="10" points="457.93,67.515 457.93,71.515 
			453.93,71.515 		"/>
		
			<line fill="none" stroke="#5DB541" stroke-width="2" stroke-miterlimit="10" stroke-dasharray="6.8096,6.8096" x1="447.12" y1="71.515" x2="409.668" y2="71.515"/>
		<polyline fill="none" stroke="#5DB541" stroke-width="2" stroke-miterlimit="10" points="406.263,71.515 402.263,71.515 
			402.263,67.515 		"/>
		
			<line fill="none" stroke="#5DB541" stroke-width="2" stroke-miterlimit="10" stroke-dasharray="9.3662,9.3662" x1="402.263" y1="58.149" x2="402.263" y2="25.367"/>
		<polyline fill="none" stroke="#5DB541" stroke-width="2" stroke-miterlimit="10" points="402.263,20.684 402.263,16.684 
			406.263,16.684 		"/>
		
			<line fill="none" stroke="#5DB541" stroke-width="2" stroke-miterlimit="10" stroke-dasharray="6.8096,6.8096" x1="413.072" y1="16.684" x2="450.525" y2="16.684"/>
		<polyline fill="none" stroke="#5DB541" stroke-width="2" stroke-miterlimit="10" points="453.93,16.684 457.93,16.684 
			457.93,20.684 		"/>
		
			<line fill="none" stroke="#5DB541" stroke-width="2" stroke-miterlimit="10" stroke-dasharray="9.3662,9.3662" x1="457.93" y1="30.05" x2="457.93" y2="62.832"/>
	</g>
</g>
<path fill="#F98423" d="M430.096,28.808c-5.018-5.019-13.154-5.019-18.174,0s-5.019,13.155,0,18.175l18.174,18.173l18.175-18.173
	c5.019-5.02,5.019-13.155,0-18.175C443.252,23.789,435.113,23.789,430.096,28.808z"/>
<g>
	<g>
		<path fill="none" stroke="#5DB541" stroke-width="3" stroke-linecap="round" stroke-linejoin="round" d="M229.22,19.164
			c-1.109,0.696-2.158,1.526-3.123,2.492c-0.965-0.965-2.016-1.796-3.125-2.492"/>
		
			<path fill="none" stroke="#5DB541" stroke-width="3" stroke-linecap="round" stroke-linejoin="round" stroke-dasharray="7.5463,7.5463" d="
			M215.923,16.626c-5.275-0.701-10.807,0.976-14.863,5.03c-6.914,6.915-6.914,18.122,0,25.038l19.543,19.543"/>
		<polyline fill="none" stroke="#5DB541" stroke-width="3" stroke-linecap="round" stroke-linejoin="round" points="223.269,68.901 
			226.097,71.729 228.925,68.901 		"/>
		
			<path fill="none" stroke="#5DB541" stroke-width="3" stroke-linecap="round" stroke-linejoin="round" stroke-dasharray="7.5465,7.5465" d="
			M234.261,63.565l16.873-16.871c6.914-6.914,6.914-18.123,0-25.038c-5.008-5.009-12.273-6.389-18.525-4.14"/>
	</g>
</g>
</svg>
